<svg width="25" height="24" viewBox="0 0 25 24" fill="none" xmlns="http://www.w3.org/2000/svg">
<path d="M3 15L2.10557 14.5528C1.428 14.214 1 13.5215 1 12.7639V11.886C1 11.0523 1.51715 10.3061 2.29775 10.0133L4.3464 9.2451C4.76962 9.08639 5.12607 8.78561 5.44919 8.46956C6.1995 7.73568 7.98478 6.5 11.5 6.5C14.6009 6.5 16.3556 7.65388 17.2412 8.53041C17.7797 9.06331 18.4806 9.49418 19.2309 9.59887C20.602 9.79019 22.6704 10.3518 23 12C23.2112 13.0559 23.244 13.755 23.2114 14.2104C23.1735 14.7395 22.702 15 22.1716 15H21M16 15H8" stroke="black" stroke-width="2"/>
<circle cx="5.5" cy="15.5" r="2.5" stroke="black" stroke-width="2"/>
<circle cx="18.5" cy="15.5" r="2.5" stroke="black" stroke-width="2"/>
</svg>
