<svg width="55" height="56" viewBox="0 0 55 56" fill="none" xmlns="http://www.w3.org/2000/svg">
<rect x="9.16666" y="27.5864" width="36.6667" height="22.9167" stroke="#1949F3" stroke-width="5"/>
<rect x="4.58334" y="13.8364" width="45.8333" height="13.75" rx="1" stroke="#1949F3" stroke-width="5"/>
<path d="M27.5 51.6491V14.9824" stroke="#1949F3" stroke-width="5"/>
<path d="M27.5 13.8367C27.5 13.8367 32.9895 13.8367 35.5208 13.8367C38.0521 13.8367 40.1042 11.7847 40.1042 9.25339C40.1042 6.72209 38.0521 4.67006 35.5208 4.67006C34.454 4.67006 33.6051 4.63226 32.0833 5.81576C29.5867 7.75747 27.5 13.8367 27.5 13.8367Z" stroke="#1949F3" stroke-width="5"/>
<path d="M28.6458 13.8367C28.6458 13.8367 23.1563 13.8367 20.625 13.8367C18.0937 13.8367 16.0417 11.7847 16.0417 9.25339C16.0417 6.72209 18.0937 4.67006 20.625 4.67006C21.6918 4.67006 22.5407 4.63226 24.0625 5.81576C26.5592 7.75747 28.6458 13.8367 28.6458 13.8367Z" stroke="#1949F3" stroke-width="5"/>
</svg>
