<svg width="75" height="62" viewBox="0 0 75 62" fill="none" xmlns="http://www.w3.org/2000/svg">
<path d="M9.74998 38.2116L4.82118 36.1801C4.07212 35.8714 3.58331 35.1412 3.58331 34.331V28.2492C3.58331 27.3722 4.15472 26.5975 4.99265 26.3384L15.2815 23.1579C15.6938 23.0305 16.0515 22.7761 16.3533 22.4676C17.8143 20.974 23.1782 16.6074 35.9583 16.6074C48.0977 16.6074 53.5459 21.3351 55.3137 23.3452C55.7754 23.8701 56.4204 24.2325 57.1187 24.2657C60.4483 24.4242 70.1428 25.3362 71.4166 30.5866C72.4252 34.7433 72.1142 36.7246 71.7785 37.5979C71.6119 38.0312 71.1628 38.2116 70.6986 38.2116H65.25M49.8333 38.2116H25.1666" stroke="#1949F3" stroke-width="5"/>
<ellipse cx="17.4583" cy="39.4821" rx="7.70833" ry="6.35417" stroke="#1949F3" stroke-width="5"/>
<ellipse cx="57.5416" cy="39.4821" rx="7.70833" ry="6.35417" stroke="#1949F3" stroke-width="5"/>
</svg>
